<svg width="19" height="18" viewBox="0 0 19 18" fill="none" xmlns="http://www.w3.org/2000/svg">
<path d="M1 1L2.84463 1.31926L3.69865 11.494C3.76694 12.3249 4.46133 12.9626 5.29496 12.9599H14.9695C15.765 12.9617 16.4399 12.3764 16.5525 11.5889L17.3941 5.77297C17.4881 5.12292 17.0367 4.51987 16.3876 4.42586C16.3308 4.41788 3.14083 4.41344 3.14083 4.41344" stroke="white" stroke-width="1.5" stroke-linecap="round" stroke-linejoin="round"/>
<path d="M11.0878 7.69098H13.547" stroke="white" stroke-width="1.5" stroke-linecap="round" stroke-linejoin="round"/>
<path fill-rule="evenodd" clip-rule="evenodd" d="M4.9059 16.0342C5.17284 16.0342 5.38834 16.2506 5.38834 16.5166C5.38834 16.7836 5.17284 16.9999 4.9059 16.9999C4.63896 16.9999 4.42346 16.7836 4.42346 16.5166C4.42346 16.2506 4.63896 16.0342 4.9059 16.0342Z" fill="white" stroke="white" stroke-width="1.5" stroke-linecap="round" stroke-linejoin="round"/>
<path fill-rule="evenodd" clip-rule="evenodd" d="M14.9097 16.0342C15.1767 16.0342 15.393 16.2506 15.393 16.5166C15.393 16.7836 15.1767 16.9999 14.9097 16.9999C14.6428 16.9999 14.4273 16.7836 14.4273 16.5166C14.4273 16.2506 14.6428 16.0342 14.9097 16.0342Z" fill="white" stroke="white" stroke-width="1.5" stroke-linecap="round" stroke-linejoin="round"/>
</svg>
