<svg width="206" height="40" viewBox="0 0 206 40" fill="none" xmlns="http://www.w3.org/2000/svg">
<path d="M51.0706 32.3389H63.4454V27.4661H51.0706V32.3389ZM51.0706 12.6725H63.4454V7.79971H51.0706V12.6725ZM51.0706 21.8221H62.7442V17.0545H51.0706V21.8221ZM47.1443 7.79971V32.3389H52.8234V7.79971H47.1443Z" fill="white"/>
<path d="M78.5383 22.4531L72.5437 7.79971H65.6377L78.5383 33.8813L91.4739 7.79971H84.5329L78.5383 22.4531Z" fill="white"/>
<path d="M97.9716 32.3389H110.346V27.4661H97.9716V32.3389ZM97.9716 12.6725H110.346V7.79971H97.9716V12.6725ZM97.9716 21.8221H109.645V17.0545H97.9716V21.8221ZM94.0453 7.79971V32.3389H99.7244V7.79971H94.0453Z" fill="white"/>
<path d="M132.1 7.79971V21.6117L115.168 6.57275V32.3389H120.847V18.5268L137.814 33.5658V7.79971H132.1Z" fill="white"/>
<path d="M140.546 13.0932H147.277V32.3389H153.202V13.0932H159.967V7.79971H140.546V13.0932Z" fill="white"/>
<path d="M166.577 32.3389H178.952V27.4661H166.577V32.3389ZM166.577 12.6725H178.952V7.79971H166.577V12.6725ZM166.577 21.8221H178.251V17.0545H166.577V21.8221ZM162.651 7.79971V32.3389H168.33V7.79971H162.651Z" fill="white"/>
<path d="M197.235 7.79971L193.309 14.9161L189.523 7.79971H182.196L189.733 19.7538L181.32 32.3389H188.646L193.274 24.1708L197.761 32.3389H205.087L196.849 19.7538L204.562 7.79971H197.235Z" fill="white"/>
<path d="M1.07284 17.8124C-0.598547 21.0687 -0.195771 23.9212 1.44469 25.5616C3.46704 27.7526 -0.128682 23.3706 13.13 15.337C23.737 8.91005 21.6881 2.43444 19.3378 0C19.3378 2.39371 18.3901 4.41966 16.8811 6.05274C12.3513 10.9547 4.12063 11.8744 1.07284 17.8124Z" fill="white"/>
<path d="M8.42184 24.3851C6.75045 27.6414 7.15323 30.4939 8.79369 32.1344C10.816 34.3254 7.22032 29.9434 20.479 21.9097C31.086 15.4828 29.0371 9.00719 26.6868 6.57275C26.6868 8.96647 25.7391 10.9924 24.2301 12.6255C19.7003 17.5275 11.4696 18.4472 8.42184 24.3851Z" fill="white"/>
<path d="M15.7708 31.6888C14.0995 34.9451 14.5022 37.7976 16.1427 39.4381C18.165 41.6291 14.5693 37.2471 27.828 29.2134C38.435 22.7865 36.3861 16.3109 34.0358 13.8765C34.0358 16.2702 33.0881 18.2961 31.579 19.9292C27.0493 24.8312 18.8186 25.7509 15.7708 31.6888Z" fill="white"/>
</svg>
