<svg width="206" height="40" viewBox="0 0 206 40" fill="none" xmlns="http://www.w3.org/2000/svg">
<path d="M51.0706 32.3393H63.4454V27.4666H51.0706V32.3393ZM51.0706 12.673H63.4454V7.8002H51.0706V12.673ZM51.0706 21.8226H62.7442V17.055H51.0706V21.8226ZM47.1443 7.8002V32.3393H52.8234V7.8002H47.1443Z" fill="white"/>
<path d="M78.5383 22.4536L72.5437 7.8002H65.6377L78.5383 33.8818L91.4739 7.8002H84.5329L78.5383 22.4536Z" fill="white"/>
<path d="M97.9716 32.3393H110.346V27.4666H97.9716V32.3393ZM97.9716 12.673H110.346V7.8002H97.9716V12.673ZM97.9716 21.8226H109.645V17.055H97.9716V21.8226ZM94.0453 7.8002V32.3393H99.7244V7.8002H94.0453Z" fill="white"/>
<path d="M132.1 7.8002V21.6122L115.168 6.57324V32.3393H120.847V18.5273L137.814 33.5663V7.8002H132.1Z" fill="white"/>
<path d="M140.546 13.0936H147.277V32.3393H153.202V13.0936H159.967V7.8002H140.546V13.0936Z" fill="white"/>
<path d="M166.577 32.3393H178.952V27.4666H166.577V32.3393ZM166.577 12.673H178.952V7.8002H166.577V12.673ZM166.577 21.8226H178.251V17.055H166.577V21.8226ZM162.651 7.8002V32.3393H168.33V7.8002H162.651Z" fill="white"/>
<path d="M197.235 7.8002L193.309 14.9166L189.523 7.8002H182.196L189.733 19.7543L181.32 32.3393H188.646L193.274 24.1713L197.761 32.3393H205.087L196.849 19.7543L204.562 7.8002H197.235Z" fill="white"/>
<path d="M1.07284 17.8123C-0.598547 21.0687 -0.195771 23.9212 1.44469 25.5616C3.46704 27.7526 -0.128682 23.3706 13.13 15.337C23.737 8.91005 21.6881 2.43444 19.3378 0C19.3378 2.39371 18.3901 4.41966 16.8811 6.05274C12.3513 10.9548 4.12063 11.8744 1.07284 17.8123Z" fill="#EE0034"/>
<path d="M8.42184 24.3856C6.75045 27.6419 7.15323 30.4944 8.79369 32.1349C10.816 34.3258 7.22032 29.9439 20.479 21.9102C31.086 15.4833 29.0371 9.00768 26.6868 6.57324C26.6868 8.96695 25.7391 10.9929 24.2301 12.626C19.7003 17.528 11.4696 18.4476 8.42184 24.3856Z" fill="#EE0034"/>
<path d="M15.7708 31.6883C14.0995 34.9447 14.5022 37.7971 16.1427 39.4376C18.165 41.6286 14.5693 37.2466 27.828 29.2129C38.435 22.786 36.3861 16.3104 34.0358 13.876C34.0358 16.2697 33.0881 18.2956 31.5791 19.9287C27.0493 24.8307 18.8186 25.7504 15.7708 31.6883Z" fill="#EE0034"/>
</svg>
