<svg width="11" height="14" viewBox="0 0 11 14" fill="none" xmlns="http://www.w3.org/2000/svg">
<path d="M0.718846 0.0719551L10.7635 6.54439C10.8355 6.59094 10.8952 6.65748 10.9367 6.73741C10.9782 6.81734 11 6.90787 11 7C11 7.09213 10.9782 7.18266 10.9367 7.26259C10.8952 7.34251 10.8355 7.40906 10.7635 7.4556L0.718846 13.928C0.64607 13.975 0.563361 13.9998 0.479101 14C0.394841 14.0002 0.312024 13.9758 0.239046 13.9293C0.166067 13.8828 0.10552 13.8158 0.0635405 13.7351C0.0215612 13.6544 -0.000358044 13.5629 4.42352e-06 13.4698V0.528087C-2.05008e-05 0.435196 0.0221447 0.343942 0.0642616 0.263539C0.106378 0.183136 0.166956 0.116431 0.239878 0.0701592C0.312799 0.0238876 0.395483 -0.000312295 0.47958 3.04277e-06C0.563678 0.00031838 0.64621 0.0251377 0.718846 0.0719551Z" fill="white"/>
</svg>
