<svg width="30" height="28" viewBox="0 0 30 28" fill="none" xmlns="http://www.w3.org/2000/svg">
<path d="M8.22656 1.625C5.27344 3.14844 2.74219 5.72656 1.54688 8.44531C0.445312 10.9297 0.210938 12.7109 0.0703125 19.6953C-0.046875 25.6953 -0.0234375 26.2344 0.351562 26.6562C0.75 27.1016 1.10156 27.125 6.23438 27.125C11.6016 27.125 11.6953 27.125 12.0469 26.6094C12.3516 26.1641 12.4219 25.2031 12.4219 20.8906C12.4219 14.4922 12.6328 14.8672 8.92969 14.75L6.42188 14.6562L6.60938 13.1094C6.84375 11.2109 7.89844 8.9375 9.02344 7.95312C9.46875 7.55469 10.3359 6.94531 10.9453 6.59375C13.1484 5.32812 13.2188 5.16406 12.3047 3.05469C11.2031 0.59375 10.6172 0.382812 8.22656 1.625Z" fill="white"/>
<path d="M25.4531 1.60156C22.3594 3.19531 20.0156 5.53906 18.7031 8.28125C17.5547 10.7187 17.3203 12.5469 17.1797 19.6953C17.0625 25.6953 17.0859 26.2344 17.4609 26.6562C17.8594 27.1016 18.2344 27.125 23.3203 27.125C28.2891 27.125 28.7812 27.0781 29.1328 26.7031C29.4844 26.3281 29.5312 25.5781 29.5312 20.9844C29.5312 14.4687 29.7422 14.8672 25.9922 14.75L23.4375 14.6562L23.5781 13.6953C24.0938 10.0391 25.2891 8.14062 28.0078 6.61719C29.5547 5.75 30 5.35156 30 4.83594C30 4.39062 28.8047 1.76562 28.3594 1.22656C27.9141 0.687498 26.9766 0.804686 25.4531 1.60156Z" fill="white"/>
</svg>
